# Blender v2.79 (sub 0) OBJ File: 'untitled.blend'
# www.blender.org
mtllib untitled.mtl
o Cylinder_Cylinder.001
v 0.001601 1.924697 1.400731
v 0.020703 0.821697 4.850235
v 0.153061 1.914106 1.405675
v 0.126426 0.823265 4.849303
v 0.301598 1.882540 1.409804
v 0.206954 0.825006 4.847020
v 0.444322 1.830614 1.413037
v 0.317740 0.826561 4.846310
v 0.578454 1.759337 1.415312
v 0.404147 0.821104 4.865067
v 0.701383 1.670098 1.416584
v 0.491470 0.821289 4.867533
v 0.810716 1.564633 1.416828
v 0.608013 0.826713 4.855815
v 0.904327 1.444995 1.416040
v 0.713744 0.828426 4.850784
v 0.980392 1.313512 1.414236
v 0.796134 0.827900 4.871749
v 1.037431 1.172744 1.411449
v 0.870191 0.821653 4.869879
v 1.074334 1.025431 1.407734
v 0.952718 0.832153 4.880531
v 1.090383 0.874440 1.403165
v 0.995167 0.782032 4.122087
v 1.085265 0.722709 1.397829
v 0.990049 0.630302 4.116752
v 1.059080 0.573193 1.391830
v 0.963864 0.480785 4.110753
v 1.012337 0.428800 1.385286
v 0.917122 0.336393 4.104209
v 0.945947 0.292343 1.378323
v 0.850731 0.199935 4.097246
v 0.861201 0.166476 1.371078
v 0.765986 0.074069 4.090000
v 0.759750 0.053649 1.363690
v 0.664534 -0.038758 4.082613
v 0.643567 -0.043940 1.356305
v 0.548351 -0.136348 4.075228
v 0.514914 -0.124394 1.349065
v 0.419698 -0.216802 4.067988
v 0.376295 -0.186146 1.342112
v 0.281080 -0.278554 4.061035
v 0.230409 -0.227994 1.335581
v 0.135193 -0.320402 4.054503
v 0.080094 -0.249124 1.329599
v -0.015122 -0.341531 4.048522
v -0.071723 -0.249124 1.324282
v -0.166939 -0.341531 4.043205
v -0.222088 -0.227994 1.319734
v -0.317304 -0.320402 4.038657
v -0.368075 -0.186146 1.316044
v -0.463290 -0.278554 4.034967
v -0.506840 -0.124395 1.313284
v -0.602055 -0.216802 4.032207
v -0.635684 -0.043941 1.311506
v -0.730900 -0.136348 4.030429
v -0.752099 0.053649 1.310746
v -0.847315 -0.038758 4.029669
v -0.853819 0.166476 1.311018
v -0.949035 0.074068 4.029941
v -0.938864 0.292343 1.312318
v -1.034080 0.199935 4.031240
v -1.005579 0.428800 1.314619
v -1.100794 0.336393 4.033542
v -1.052665 0.573193 1.317878
v -1.147880 0.480786 4.036800
v -1.079205 0.722710 1.322030
v -1.174421 0.630302 4.040953
v -1.084684 0.874440 1.326995
v -1.179900 0.782033 4.045918
v -1.068994 1.025432 1.332676
v -1.036326 0.824119 4.767540
v -1.032441 1.172745 1.338963
v -0.941607 0.812759 4.832726
v -0.975737 1.313513 1.345733
v -0.834717 0.818312 4.830771
v -0.899984 1.444996 1.352854
v -0.743811 0.824388 4.816292
v -0.806658 1.564634 1.360189
v -0.628326 0.821414 4.828856
v -0.697575 1.670099 1.367593
v -0.546237 0.824295 4.778168
v -0.574857 1.759338 1.374924
v -0.432993 0.824620 4.826252
v -0.440895 1.830615 1.382037
v -0.324148 0.826166 4.825504
v -0.298295 1.882541 1.388796
v -0.199066 0.811975 4.870854
v -0.149832 1.914107 1.395068
v -0.097317 0.820215 4.850483
vn 0.0287 0.9525 0.3032
vn 0.1209 0.9469 0.2978
vn 0.1839 0.9398 0.2879
vn 0.2931 0.9167 0.2715
vn 0.3736 0.8927 0.2520
vn 0.4039 0.8859 0.2282
vn 0.5036 0.8417 0.1947
vn 0.6209 0.7681 0.1566
vn 0.7430 0.6589 0.1175
vn 0.7487 0.6577 0.0829
vn 0.9903 0.1332 0.0408
vn 0.9988 -0.0349 0.0338
vn 0.9844 -0.1735 0.0286
vn 0.9508 -0.3088 0.0228
vn 0.8988 -0.4381 0.0166
vn 0.8292 -0.5589 0.0100
vn 0.7435 -0.6687 0.0033
vn 0.6433 -0.7656 -0.0035
vn 0.5306 -0.8476 -0.0102
vn 0.4076 -0.9130 -0.0168
vn 0.2766 -0.9607 -0.0230
vn 0.1403 -0.9897 -0.0287
vn 0.0012 -0.9994 -0.0339
vn -0.1379 -0.9897 -0.0385
vn -0.2743 -0.9607 -0.0423
vn -0.4054 -0.9130 -0.0452
vn -0.5286 -0.8476 -0.0473
vn -0.6415 -0.7656 -0.0485
vn -0.7419 -0.6687 -0.0487
vn -0.8279 -0.5589 -0.0480
vn -0.8977 -0.4381 -0.0463
vn -0.9501 -0.3088 -0.0438
vn -0.9840 -0.1735 -0.0404
vn -0.9987 -0.0349 -0.0362
vn -0.8069 0.5903 0.0200
vn -0.7353 0.6744 0.0677
vn -0.6643 0.7390 0.1126
vn -0.6254 0.7658 0.1497
vn -0.4926 0.8491 0.1908
vn -0.4423 0.8690 0.2219
vn -0.3940 0.8854 0.2466
vn -0.2831 0.9204 0.2695
vn -0.1883 0.9392 0.2873
vn -0.0263 -0.6293 0.7767
vn -0.1336 0.9452 0.2978
vn -0.0487 0.9517 0.3033
vn 0.0350 0.0339 -0.9988
usemtl None
s off
f 1//1 2//1 4//1 3//1
f 3//2 4//2 6//2 5//2
f 5//3 6//3 8//3 7//3
f 7//4 8//4 10//4 9//4
f 9//5 10//5 12//5 11//5
f 11//6 12//6 14//6 13//6
f 13//7 14//7 16//7 15//7
f 15//8 16//8 18//8 17//8
f 17//9 18//9 20//9 19//9
f 19//10 20//10 22//10 21//10
f 21//11 22//11 24//11 23//11
f 23//12 24//12 26//12 25//12
f 25//13 26//13 28//13 27//13
f 27//14 28//14 30//14 29//14
f 29//15 30//15 32//15 31//15
f 31//16 32//16 34//16 33//16
f 33//17 34//17 36//17 35//17
f 35//18 36//18 38//18 37//18
f 37//19 38//19 40//19 39//19
f 39//20 40//20 42//20 41//20
f 41//21 42//21 44//21 43//21
f 43//22 44//22 46//22 45//22
f 45//23 46//23 48//23 47//23
f 47//24 48//24 50//24 49//24
f 49//25 50//25 52//25 51//25
f 51//26 52//26 54//26 53//26
f 53//27 54//27 56//27 55//27
f 55//28 56//28 58//28 57//28
f 57//29 58//29 60//29 59//29
f 59//30 60//30 62//30 61//30
f 61//31 62//31 64//31 63//31
f 63//32 64//32 66//32 65//32
f 65//33 66//33 68//33 67//33
f 67//34 68//34 70//34 69//34
f 69//35 70//35 72//35 71//35
f 71//36 72//36 74//36 73//36
f 73//37 74//37 76//37 75//37
f 75//38 76//38 78//38 77//38
f 77//39 78//39 80//39 79//39
f 79//40 80//40 82//40 81//40
f 81//41 82//41 84//41 83//41
f 83//42 84//42 86//42 85//42
f 85//43 86//43 88//43 87//43
f 4//44 2//44 90//44 88//44 86//44 84//44 82//44 80//44 78//44 76//44 74//44 72//44 70//44 68//44 66//44 64//44 62//44 60//44 58//44 56//44 54//44 52//44 50//44 48//44 46//44 44//44 42//44 40//44 38//44 36//44 34//44 32//44 30//44 28//44 26//44 24//44 22//44 20//44 18//44 16//44 14//44 12//44 10//44 8//44 6//44
f 87//45 88//45 90//45 89//45
f 89//46 90//46 2//46 1//46
f 1//47 3//47 5//47 7//47 9//47 11//47 13//47 15//47 17//47 19//47 21//47 23//47 25//47 27//47 29//47 31//47 33//47 35//47 37//47 39//47 41//47 43//47 45//47 47//47 49//47 51//47 53//47 55//47 57//47 59//47 61//47 63//47 65//47 67//47 69//47 71//47 73//47 75//47 77//47 79//47 81//47 83//47 85//47 87//47 89//47
o Cube.008_Cube.010
v -6.005073 -0.672302 3.361173
v -6.005073 1.327698 3.361173
v -6.005073 -0.672302 1.361173
v -6.005073 1.327698 1.361173
v -6.056843 -0.672302 3.361173
v -6.056843 1.327698 3.361173
v -6.056843 -0.672302 1.361173
v -6.056843 1.327698 1.361173
vn 1.0000 0.0000 0.0000
vn 0.0000 0.0000 -1.0000
vn -1.0000 0.0000 0.0000
vn 0.0000 0.0000 1.0000
vn 0.0000 -1.0000 0.0000
vn 0.0000 1.0000 0.0000
usemtl None
s off
f 91//48 93//48 94//48 92//48
f 93//49 97//49 98//49 94//49
f 97//50 95//50 96//50 98//50
f 95//51 91//51 92//51 96//51
f 93//52 91//52 95//52 97//52
f 98//53 96//53 92//53 94//53
o Cube.007_Cube.009
v -6.019028 1.308057 3.088129
v -5.376245 2.099740 3.088129
v -6.019028 1.308057 1.634217
v -5.376245 2.099740 1.634217
v -6.042856 1.327403 3.088129
v -5.400073 2.119087 3.088129
v -6.042856 1.327403 1.634217
v -5.400073 2.119087 1.634217
vn 0.7763 -0.6303 0.0000
vn 0.0000 0.0000 -1.0000
vn -0.7763 0.6303 0.0000
vn -0.0000 0.0000 1.0000
vn -0.6303 -0.7763 0.0000
vn 0.6303 0.7763 0.0000
usemtl None
s off
f 99//54 101//54 102//54 100//54
f 101//55 105//55 106//55 102//55
f 105//56 103//56 104//56 106//56
f 103//57 99//57 100//57 104//57
f 101//58 99//58 103//58 105//58
f 106//59 104//59 100//59 102//59
o Cube.006_Cube.008
v -6.027627 -0.648620 1.637111
v -5.384845 -1.440284 1.631496
v -6.027627 -0.658932 3.090986
v -5.384845 -1.450595 3.085371
v -6.051455 -0.667966 1.636974
v -5.408673 -1.459630 1.631359
v -6.051455 -0.678277 3.090849
v -5.408673 -1.469941 3.085234
vn 0.7763 0.6303 0.0045
vn -0.0000 -0.0071 1.0000
vn -0.7763 -0.6303 -0.0045
vn 0.0000 0.0071 -1.0000
vn -0.6303 0.7763 0.0055
vn 0.6303 -0.7763 -0.0055
usemtl None
s off
f 107//60 109//60 110//60 108//60
f 109//61 113//61 114//61 110//61
f 113//62 111//62 112//62 114//62
f 111//63 107//63 108//63 112//63
f 109//64 107//64 111//64 113//64
f 114//65 112//65 108//65 110//65
o Cube.005_Cube.007
v 5.995656 1.303280 1.637111
v 5.352874 2.094944 1.631496
v 5.995656 1.313591 3.090986
v 5.352874 2.105255 3.085371
v 6.019484 1.322625 1.636974
v 5.376702 2.114289 1.631359
v 6.019484 1.332937 3.090849
v 5.376702 2.124601 3.085234
vn -0.7763 -0.6303 0.0045
vn 0.0000 0.0071 1.0000
vn 0.7763 0.6303 -0.0045
vn 0.0000 -0.0071 -1.0000
vn 0.6303 -0.7763 0.0055
vn -0.6303 0.7763 -0.0055
usemtl None
s off
f 115//66 117//66 118//66 116//66
f 117//67 121//67 122//67 118//67
f 121//68 119//68 120//68 122//68
f 119//69 115//69 116//69 120//69
f 117//70 115//70 119//70 121//70
f 122//71 120//71 116//71 118//71
o Cube.004_Cube.006
v 5.987057 -0.653398 3.088129
v 5.344274 -1.445081 3.088129
v 5.987057 -0.653398 1.634217
v 5.344274 -1.445081 1.634217
v 6.010885 -0.672744 3.088129
v 5.368102 -1.464427 3.088129
v 6.010885 -0.672744 1.634217
v 5.368102 -1.464427 1.634217
vn -0.7763 0.6303 0.0000
vn -0.0000 0.0000 -1.0000
vn 0.7763 -0.6303 0.0000
vn 0.0000 0.0000 1.0000
vn 0.6303 0.7763 0.0000
vn -0.6303 -0.7763 0.0000
usemtl None
s off
f 123//72 125//72 126//72 124//72
f 125//73 129//73 130//73 126//73
f 129//74 127//74 128//74 130//74
f 127//75 123//75 124//75 128//75
f 125//76 123//76 127//76 129//76
f 130//77 128//77 124//77 126//77
o Cube.003_Cube.005
v 5.973102 1.326961 3.361173
v 5.973102 -0.673039 3.361173
v 5.973102 1.326961 1.361173
v 5.973102 -0.673039 1.361173
v 6.024873 1.326961 3.361173
v 6.024872 -0.673039 3.361173
v 6.024873 1.326961 1.361173
v 6.024872 -0.673039 1.361173
vn -1.0000 0.0000 0.0000
vn 0.0000 0.0000 -1.0000
vn 1.0000 -0.0000 0.0000
vn 0.0000 0.0000 1.0000
vn 0.0000 1.0000 0.0000
vn 0.0000 -1.0000 0.0000
usemtl None
s off
f 131//78 133//78 134//78 132//78
f 133//79 137//79 138//79 134//79
f 137//80 135//80 136//80 138//80
f 135//81 131//81 132//81 136//81
f 133//82 131//82 135//82 137//82
f 138//83 136//83 132//83 134//83
o Cube.002_Cube.004
v -6.031101 0.241271 1.352800
v -6.031101 0.443696 1.352800
v -6.031101 0.241271 3.352800
v -6.031101 0.443696 3.352800
v -1.429514 0.241271 1.352800
v -1.429514 0.443696 1.352800
v -1.429514 0.241271 3.352800
v -1.429514 0.443696 3.352800
vn -1.0000 0.0000 0.0000
vn 0.0000 0.0000 1.0000
vn 1.0000 0.0000 0.0000
vn 0.0000 0.0000 -1.0000
vn 0.0000 -1.0000 0.0000
vn 0.0000 1.0000 0.0000
usemtl None
s off
f 139//84 141//84 142//84 140//84
f 141//85 145//85 146//85 142//85
f 145//86 143//86 144//86 146//86
f 143//87 139//87 140//87 144//87
f 141//88 139//88 143//88 145//88
f 146//89 144//89 140//89 142//89
o Cube.001_Cube.003
v 1.399374 0.241271 1.352800
v 1.399374 0.443696 1.352800
v 1.399374 0.241271 3.352800
v 1.399374 0.443696 3.352800
v 6.000961 0.241271 1.352800
v 6.000961 0.443696 1.352800
v 6.000961 0.241271 3.352800
v 6.000961 0.443696 3.352800
vn -1.0000 0.0000 0.0000
vn 0.0000 0.0000 1.0000
vn 1.0000 0.0000 0.0000
vn 0.0000 0.0000 -1.0000
vn 0.0000 -1.0000 0.0000
vn 0.0000 1.0000 0.0000
usemtl None
s off
f 147//90 149//90 150//90 148//90
f 149//91 153//91 154//91 150//91
f 153//92 151//92 152//92 154//92
f 151//93 147//93 148//93 152//93
f 149//94 147//94 151//94 153//94
f 154//95 152//95 148//95 150//95
o Cone.001
v 1.430599 -0.964394 -0.052739
v 1.460245 0.939694 -0.086257
v -1.442878 0.940615 -0.082093
v -1.444094 -0.963475 -0.048668
v 0.007009 -0.064545 -1.497252
vn 0.7047 -0.0235 -0.7091
vn -0.0006 0.8150 -0.5795
vn -0.7027 -0.0120 -0.7114
vn -0.0010 -0.8492 -0.5280
vn 0.0014 0.0176 0.9998
usemtl None
s off
f 155//96 159//96 156//96
f 156//97 159//97 157//97
f 157//98 159//98 158//98
f 158//99 159//99 155//99
f 155//100 156//100 157//100 158//100
o Cone
v 1.435569 0.950371 4.780787
v 1.465222 -0.954010 4.783634
v -1.437899 -0.954861 4.788843
v -1.439122 0.949520 4.785996
v 0.021683 0.002245 7.784805
vn 0.9029 0.0147 0.4296
vn 0.0008 -0.9527 0.3039
vn -0.8990 0.0001 0.4380
vn 0.0003 0.9536 0.3011
vn -0.0018 -0.0015 -1.0000
usemtl None
s off
f 160//101 164//101 161//101
f 161//102 164//102 162//102
f 162//103 164//103 163//103
f 163//104 164//104 160//104
f 160//105 161//105 162//105 163//105
o Cube
v 1.430749 -0.972374 -0.071325
v 1.430749 -0.972374 4.794762
v -1.430749 -0.972374 4.794762
v -1.430749 -0.972374 -0.071326
v 1.430750 0.947172 -0.071324
v 1.430748 0.947172 4.794764
v -1.430750 0.947172 4.794761
v -1.430749 0.947172 -0.071325
vn 0.0000 -1.0000 -0.0000
vn 0.0000 1.0000 0.0000
vn 1.0000 -0.0000 0.0000
vn -0.0000 -0.0000 1.0000
vn -1.0000 -0.0000 -0.0000
vn 0.0000 0.0000 -1.0000
usemtl Material
s off
f 165//106 166//106 167//106 168//106
f 169//107 172//107 171//107 170//107
f 165//108 169//108 170//108 166//108
f 166//109 170//109 171//109 167//109
f 167//110 171//110 172//110 168//110
f 169//111 165//111 168//111 172//111
